<svg xmlns="http://www.w3.org/2000/svg" viewBox="0 0 1216.04 140.19"><defs><style>.cls-1{fill:#1b1b1c}</style></defs><title>camtheperson-logo</title><g id="Layer_2" data-name="Layer 2"><path class="cls-1" d="M702.66 2.72c19.33.52 38 0 56.5 1.83s30.62 16.57 31.6 35.22c.86 16.53-3.81 30.6-19.24 39.17-6.88 3.82-14.49 5.28-22.25 5.48-9.3.25-18.62.06-28.44.06-.11 1.83-.27 3.36-.27 4.89 0 14.43-.1 28.85.06 43.28 0 3.36-.81 4.78-4.38 4.49a93.93 93.93 0 0 0-10.48 0c-2.24.07-3.26-.8-3.1-3.06.07-1 0-2 0-3.06V2.72zm17.89 40.74c0 7.42.07 14.85 0 22.27 0 2.47.56 3.87 3.32 3.83 8.87-.13 17.78.26 26.62-.37 13.06-.94 20.71-8.59 22.51-21.43 2.45-17.4-8.16-29.6-25.74-29.61-7.57 0-15.14.11-22.71-.06-3-.07-4.1.89-4 4 .13 7.1 0 14.24 0 21.37zM118.47 108c0 6.06.22 11.53-.18 17-.09 1.23-2.19 2.6-3.64 3.42-19.86 11.29-40.92 14.46-63.12 8.78-22-5.64-37.83-18.8-46.27-40.1-13.69-34.52.14-73.59 32.26-88.94C63.66-4.33 89.71-2 114.93 11.84a6.42 6.42 0 0 1 3.73 6.69c-.25 4.28-.06 8.59-.06 14.14l-4.77-3.48C94.46 15.1 73.23 11 50.68 19.37c-19.82 7.34-29.17 23.41-31.27 43.68C17.69 79.54 20.79 95.18 32.2 108c13.56 15.19 31.14 18.87 50.53 16.17a65.55 65.55 0 0 0 33.09-14.69 18.94 18.94 0 0 1 2.65-1.48zm167.82 29.08v-5.39c0-14 .07-28-.17-42-.28-16.36-13-23.26-27.14-14.78-7.26 4.37-11.37 10.82-11.46 19.4-.13 12.39-.05 24.79-.06 37.18v5.5c-5 0-9.78.18-14.49-.2-.71-.05-1.73-2.67-1.74-4.11-.12-18.51-.08-37-.08-55.54 0-3.5.21-7-.06-10.5-.24-3.1.95-4.66 3.91-5.1.72-.11 1.42-.28 2.14-.39C245 60 245 60 246 68c.17 1.38.54 2.74 1 5.08 8-8.8 16.6-14.62 28.26-14.7 11.84-.09 20.59 4.37 25.45 16.41 1.52-1.61 2.65-2.79 3.77-4 9.72-10.4 21.38-14.8 35.5-11.28a20.22 20.22 0 0 1 15 14 53 53 0 0 1 2.75 14.93c.36 14.72 0 29.45.19 44.17 0 3.27-.71 4.59-4.34 4.57-11.9-.09-11.88.06-11.91-11.81s.11-23.92-.28-35.86c-.54-16.37-13.29-23-27.36-14.44-7.18 4.39-11.38 10.72-11.39 19.41 0 12.83-.13 25.66 0 38.49 0 3.3-1 4.39-4.26 4.17-3.74-.25-7.53-.06-12.09-.06zm227.98-64.76c6.05-6.7 13.24-11.56 22.11-13.22 16.68-3.14 31.39 3 34.84 21.95a84 84 0 0 1 1 13.91c.15 10.35 0 20.7 0 31.05 0 11.09 0 11.09-11.29 11.07h-4.71c-.09-2-.22-3.5-.22-5v-36.3a71.56 71.56 0 0 0-.46-8.28c-1.8-14.74-12.77-18-24.61-14.41-12.13 3.73-17.79 12.17-17.81 24.87q0 18.81-.09 37.6a8.11 8.11 0 0 1-.52 1.53c-4.33 0-8.93.1-13.53-.1-.72 0-1.65-1.31-2-2.2a8.7 8.7 0 0 1-.12-3c0-41.1.08-82.21-.12-123.31 0-4.35 1.42-6.09 5.42-6.51 3.44-.35 6.87-.88 10.91-1.41V71.8zM367.12 18.15V3.51h112.57v14.41c-1.62.08-3.16.22-4.71.22-12.67 0-25.35.15-38-.08-3.75-.07-4.62 1.18-4.6 4.71q.17 54.19.05 108.38c0 1.85-.2 3.7-.33 5.92-5.31 0-10.25.13-15.16-.12-.89 0-2-1.56-2.45-2.62s-.11-2.3-.11-3.46c0-36-.06-72 .09-107.95 0-3.84-1-4.93-4.87-4.87-13.98.25-27.95.1-42.48.1zm706.72 122.04c-14.45-.39-26.55-5.67-35.58-16.88-13.86-17.21-10.76-41.54 6.68-55.17 15.7-12.27 38.35-13.15 54.71-2.14 13.65 9.19 20.81 24.94 17.57 40-3.78 17.57-15.26 27.93-32.22 32.55-3.6.97-7.43 1.11-11.16 1.64zm27.54-41.28c-.08-16.26-11.78-27.91-27.9-27.78-15.74.14-27.59 12.14-27.57 27.91 0 15.94 12.16 28.15 27.92 28.11 15.97-.04 27.63-11.99 27.55-28.24zm-890.86 30.27c1 6.65.51 7.95-5.07 9.67-9.13 2.8-18.28.33-20.87-9.18a13.94 13.94 0 0 0-1.08-2.19c-3.14 2.31-6 4.52-8.94 6.55-7.29 5-15.43 7.44-24 5.18-15.15-4-19.77-23.15-8.69-34.86 5.83-6.16 13.4-9.22 21.39-11.18 5.62-1.38 11.43-2 17.12-3.18 1.15-.24 3.1-1.47 3-2.07-.45-4.28-.49-9-2.39-12.59-1.23-2.36-5.25-4-8.26-4.53-9.18-1.54-17.47 1.82-25.44 6-1.75.92-3.49 1.86-6.13 3.27 0-4.43-.14-7.87.09-11.27a3.94 3.94 0 0 1 1.91-2.64c11.72-6.29 24.2-9.61 37.43-7.13 13.58 2.54 19.15 10 19.29 24.45.12 12 0 23.9 0 35.86a43.56 43.56 0 0 0 .2 5.24c.5 4.38 2.92 6.09 7.23 5.24 1.02-.18 2-.39 3.21-.64zM183.62 110c0-10.27 0-10.27-9-8.9a11 11 0 0 0-1.3.13c-6.89 1.8-13.91 3.44-18.86 9.14-5.54 6.38-3.2 15.08 4.61 16.89s13.78-2.66 19.94-6.67c4.68-3.01 5.09-7 4.61-10.59zm682.06 10c6 6.2 5.86 8-1.93 12.54-11.38 6.62-23.53 9-36.5 6.16-14-3.07-23.59-11.48-27.67-25.1-4.68-15.6-3.27-30.6 8.06-43.39 14.57-16.47 42.65-15.76 55.8 1.3A28.2 28.2 0 0 1 869.16 92c-.31 3.46-1.49 5-5.38 4.94-15.29-.24-30.59 0-45.88-.19-3.72 0-4.65 1.13-4.59 4.69.31 19 16 27.64 32.44 25.15 6.59-.98 12.85-4.14 19.93-6.59zm-50.56-34.2c1.93.13 3.48.32 5 .32h27.47c5.87 0 7.18-2.11 4.34-7.33a15.6 15.6 0 0 0-3.53-4.35c-8.83-7.44-29.17-5.24-33.28 11.36zM664.34 120c6 6.2 5.86 8-1.93 12.54-11.38 6.62-23.53 9-36.5 6.16-14-3.07-23.58-11.48-27.66-25.1C593.56 98 595 83 606.3 70.21c14.57-16.47 42.65-15.76 55.8 1.3A28.2 28.2 0 0 1 667.82 92c-.31 3.46-1.49 5-5.38 4.94-15.29-.24-30.59 0-45.88-.19-3.72 0-4.65 1.13-4.59 4.69.31 19 16 27.64 32.44 25.15 6.59-.98 12.85-4.14 19.93-6.59zm-50.56-34.2c1.93.13 3.48.32 5 .32h27.47c5.87 0 7.18-2.11 4.34-7.33a15.6 15.6 0 0 0-3.53-4.35c-8.83-7.44-29.17-5.24-33.28 11.36zm586.03 51.28v-5.7q-.12-20.55-.26-41.08a16.91 16.91 0 0 0-.1-1.74c-1.5-15.46-12-19.19-24.53-15.61-12.08 3.47-18 12.18-18 24.71 0 11.8-.08 23.6 0 35.4 0 2.94-.76 4.05-3.91 4.09-12.44.14-12.44.25-12.44-12.1 0-19.37.1-38.75-.09-58.12 0-3.53 1.29-4.89 4.45-5.57 9.37-2 9.34-2.07 10.56 7.64a26 26 0 0 0 .81 3.21l1.94 1.48c.69-1.46 1-3.3 2.14-4.31 9.94-9.16 21.58-13 35-10.12 11.75 2.53 17.73 10.73 19.47 22 1 6.43 1 13 1 19.58.16 10.63-.07 21.27.11 31.9.06 3.46-1 4.68-4.51 4.4s-7.16-.06-11.64-.06zM956.48 120c6.41 2.4 12.21 5.4 18.36 6.62 5.07 1 10.66.43 15.84-.48 4-.7 6.16-4.14 6.45-8.39a8.32 8.32 0 0 0-5.29-8.75c-4.66-2-9.59-3.31-14.33-5.11a62.69 62.69 0 0 1-10.71-4.74c-7.67-4.77-10.82-12-9.7-20.93 1-8.32 5.39-14.35 13.35-17.43 12.62-4.89 24.59-2.35 36.17 3.52.75.37 1.68 1.61 1.56 2.27-.58 3.2-1.49 6.35-2.16 9-6.82-1.88-12.87-3.77-19-5.13a22.15 22.15 0 0 0-7.82.17c-4.09.6-6.92 2.8-7.68 7.18-.74 4.21 1 7.37 4.62 9 4.35 2 9.06 3.08 13.56 4.71a71.24 71.24 0 0 1 10 4.17c8.47 4.67 12.46 11.92 11.63 21.7-.83 9.62-5.51 16.57-14.63 19.9-14.4 5.26-28.08 2.42-41.13-4.67a4.27 4.27 0 0 1-1.55-3.44 33.34 33.34 0 0 1 1.46-6.37c.27-.93.68-1.8 1-2.8zM911 136.45a11.24 11.24 0 0 1-1.21.44c-15.05 1.36-15.05 1.36-15.05-13.61 0-18.8.08-37.61-.08-56.41 0-3.23 1-4.69 4.1-5.42 9.67-2.28 9.64-2.36 10.91 7.65a35.14 35.14 0 0 0 1 3.73c8.18-8.67 17.18-14.45 29.51-14.34v13.87c0 2.73-1.82 2.23-3.59 2.46-4.7.59-9.66.7-14 2.4C915 80.27 910.93 86.39 911 95c.1 12.1 0 24.2 0 36.3z" id="Layer_1-2" data-name="Layer 1"/></g></svg>